<?xml version="1.0" encoding="UTF-8"?>
<svg id="Layer_2" data-name="Layer 2" xmlns="http://www.w3.org/2000/svg" viewBox="0 0 170.13 92">
  <defs>
    <style>
      .cls-1 {
        fill: #0095d6;
        stroke-width: 0px;
      }
    </style>
  </defs>
  <g id="CA_LOGO_2021" data-name="CA LOGO 2021">
    <path class="cls-1" d="m161.52.7h-11.5c-24.8,0-41.1,18.6-56,37.5-14.7,18.7-26,36.4-48.1,36.4h-.1c-7.7,0-14-3-19.4-8.4-10-10-10-30.6,0-40.6,5.4-5.4,11.7-8.4,19.4-8.4s14.9,3,20.3,8.4c3.4,3.4,8.8,3.4,12.2,0s3.4-8.8,0-12.2C69.72,4.8,58.22,0,45.93,0S22.13,4.8,13.43,13.5c-17.9,17.9-17.9,47,0,65,8.7,8.7,20.2,13.5,32.5,13.5h.1c30.4,0,44.8-22.8,60.6-43,13.5-17.1,26-31,42.5-31h3.8v36.3h-26.7c-4.5,0-8.2,3.7-8.2,8.2s3.7,8.2,8.2,8.2h26.7v12.5c0,4.7,3.8,8.6,8.6,8.6s8.6-3.8,8.6-8.6V9.3c0-4.7-3.8-8.6-8.6-8.6"/>
  </g>
</svg>