<?xml version="1.0" encoding="UTF-8"?>
<svg id="Layer_2" data-name="Layer 2" xmlns="http://www.w3.org/2000/svg" viewBox="0 0 426.59 78.58">
  <defs>
    <style>
      .cls-1 {
        letter-spacing: -.02em;
      }

      .cls-2 {
        fill: none;
      }

      .cls-2, .cls-3 {
        stroke-width: 0px;
      }

      .cls-4 {
        letter-spacing: 0em;
      }

      .cls-5 {
        letter-spacing: -.02em;
      }

      .cls-6 {
        letter-spacing: -.02em;
      }

      .cls-7 {
        letter-spacing: 0em;
      }

      .cls-8 {
        letter-spacing: 0em;
      }

      .cls-9 {
        font-family: Nexa-Book, Nexa;
        font-size: 15.7px;
      }

      .cls-3 {
        fill: #0095d6;
      }

      .cls-10 {
        letter-spacing: -.11em;
      }

      .cls-11 {
        letter-spacing: -.01em;
      }
    </style>
  </defs>
  <g id="CA_LOGO_2021" data-name="CA LOGO 2021">
    <g>
      <g>
        <path class="cls-3" d="m125.46,8.61l-5.47,6.46,5.93,6.75v.17h-3.61l-4.94-5.76v5.76h-2.97v-13.49h2.97v5.52l4.48-5.52h3.61v.12h0Z"/>
        <path class="cls-3" d="m137.09,19.66h-6.86l-.99,2.33h-3.2l5.99-13.49h3.26l6.05,13.43h-3.26l-.99-2.27Zm-3.43-8.14l-2.33,5.47h4.65l-2.33-5.47Z"/>
        <path class="cls-3" d="m154.94,21.92h-3.31l-3.43-4.42h-2.15v4.42h-2.97v-13.43h6.4c3.26,0,4.94,2.15,4.94,4.54,0,1.74-.52,3.31-3.08,4.25l3.66,4.48v.17h-.06Zm-8.9-10.88v3.9h3.43c1.4,0,1.98-1.05,1.98-1.86,0-.93-.64-2.04-2.04-2.04h-3.37Z"/>
        <path class="cls-3" d="m169.13,21.92h-3.31l-3.43-4.42h-2.15v4.42h-2.97v-13.43h6.4c3.26,0,4.94,2.15,4.94,4.54,0,1.74-.52,3.31-3.08,4.25l3.66,4.48v.17h-.06Zm-8.9-10.88v3.9h3.43c1.4,0,1.98-1.05,1.98-1.86,0-.93-.64-2.04-2.04-2.04h-3.37Z"/>
        <path class="cls-3" d="m171.46,21.92v-13.43h2.97v13.43h-2.97Z"/>
        <path class="cls-3" d="m187.92,21.92h-10.24v-13.43h9.94v2.73h-7.04v2.62h6.69v2.62h-6.63v2.73h7.27v2.73Z"/>
        <path class="cls-3" d="m202.51,21.92h-3.31l-3.43-4.42h-2.15v4.42h-2.97v-13.43h6.4c3.26,0,4.94,2.15,4.94,4.54,0,1.74-.52,3.31-3.08,4.25l3.66,4.48v.17h-.06Zm-8.96-10.88v3.9h3.43c1.4,0,1.98-1.05,1.98-1.86,0-.93-.64-2.04-2.04-2.04h-3.37Z"/>
        <path class="cls-3" d="m215.02,21.92h-10.24v-13.43h9.94v2.73h-7.04v2.62h6.63v2.62h-6.63v2.73h7.27v2.73h.06Z"/>
        <path class="cls-3" d="m220.66,18.14v3.78h-2.97v-13.43h6.34c3.43,0,5.12,2.21,5.12,4.83s-1.74,4.77-5.12,4.83c0,0-3.37,0-3.37,0Zm0-2.73h3.31c1.45,0,2.15-.93,2.15-2.04,0-1.05-.76-2.04-2.15-2.04h-3.31v4.07Z"/>
        <path class="cls-3" d="m239.85,19.66h-6.86l-.99,2.33h-3.2l6.05-13.43h3.26l6.05,13.43h-3.26l-1.05-2.33Zm-3.43-8.14l-2.33,5.47h4.65l-2.33-5.47Z"/>
        <path class="cls-3" d="m257.7,21.92h-3.31l-3.43-4.42h-2.15v4.42h-2.97v-13.43h6.4c3.26,0,4.94,2.15,4.94,4.54,0,1.74-.52,3.31-3.08,4.25l3.66,4.48v.17h-.06Zm-8.9-10.88v3.9h3.43c1.4,0,1.98-1.05,1.98-1.86,0-.93-.64-2.04-2.04-2.04h-3.37Z"/>
        <path class="cls-3" d="m262.7,11.17h-4.07v-2.68h11.17v2.68h-4.07v10.76h-2.97v-10.76h-.06Z"/>
        <path class="cls-3" d="m281.26,17.21l-.17-4.25v-4.54h3.02v13.43h-2.62l-6.69-8.61.12,4.42v4.19h-3.02v-13.38h2.56l6.8,8.72Z"/>
        <path class="cls-3" d="m297.54,21.92h-10.24v-13.43h9.94v2.73h-7.04v2.62h6.63v2.62h-6.63v2.73h7.27v2.73h.06Z"/>
        <path class="cls-3" d="m312.14,21.92h-3.31l-3.43-4.42h-2.15v4.42h-2.97v-13.43h6.4c3.26,0,4.94,2.15,4.94,4.54,0,1.74-.52,3.31-3.08,4.25l3.66,4.48v.17h-.06Zm-8.96-10.88v3.9h3.43c1.4,0,1.98-1.05,1.98-1.86,0-.93-.64-2.04-2.04-2.04h-3.37Z"/>
        <path class="cls-3" d="m329.23,17.91c0,.58.47,1.34,1.34,1.16v2.97c-1.4.17-2.73-.17-3.08-1.74-.81,1.34-2.33,1.86-3.78,1.86-2.44,0-5.06-.87-5.12-4.01,0-1.4.81-2.5,2.21-3.08-1.16-.41-1.8-1.8-1.8-2.68,0-3.2,3.02-4.13,5.23-4.13,2.56,0,4.89.99,5.06,3.95h-2.73c-.17-1.05-1.34-1.51-2.44-1.51-1.16,0-2.15.64-2.15,1.69,0,1.28,1.22,1.51,2.15,1.51h6.28v2.27h-1.05v1.74h-.12Zm-7.73-.17c0,1.51,1.51,1.8,2.56,1.8.7,0,2.56-.47,2.56-1.92v-1.4h-2.68c-1.63-.06-2.44.76-2.44,1.51Z"/>
        <path class="cls-3" d="m347.79,19.66h-6.86l-.99,2.33h-3.2l6.05-13.43h3.26l6.05,13.43h-3.26l-1.05-2.33Zm-3.43-8.14l-2.33,5.47h4.65l-2.33-5.47Z"/>
        <path class="cls-3" d="m351.97,14.25h7.21v2.44h-7.21v-2.44Z"/>
        <path class="cls-3" d="m373.26,8.61l-5.47,6.46,5.93,6.75v.17h-3.61l-4.94-5.76v5.76h-2.97v-13.49h2.97v5.52l4.48-5.52h3.61v.12Z"/>
        <path class="cls-3" d="m384.89,19.66h-6.86l-.99,2.33h-3.2l6.05-13.43h3.26l6.05,13.43h-3.26l-1.05-2.33Zm-3.43-8.14l-2.33,5.47h4.65l-2.33-5.47Z"/>
        <path class="cls-3" d="m398.61,11.75c-.76-.81-2.04-1.1-3.08-1.1-1.34,0-2.38.58-2.38,1.45,0,1.22,1.16,1.45,2.91,1.63,2.68.23,5.18,1.22,5.18,4.36,0,2.97-2.79,4.3-5.64,4.3-2.33,0-4.77-.87-5.87-2.79l1.8-1.86c1.05,1.34,2.73,1.92,4.13,1.92,1.57,0,2.68-.64,2.68-1.57,0-1.1-.87-1.63-2.73-1.8-2.85-.29-5.35-.99-5.35-4.13,0-2.68,2.56-4.07,5.29-4.07,2.09,0,3.61.47,5,2.09l-1.92,1.57Z"/>
        <path class="cls-3" d="m411.47,11.75c-.76-.81-2.04-1.1-3.08-1.1-1.34,0-2.38.58-2.38,1.45,0,1.22,1.16,1.45,2.91,1.63,2.68.23,5.18,1.22,5.18,4.36,0,2.97-2.79,4.3-5.64,4.3-2.33,0-4.77-.87-5.87-2.79l1.8-1.86c1.05,1.34,2.73,1.92,4.13,1.92,1.57,0,2.68-.64,2.68-1.57,0-1.1-.87-1.63-2.73-1.8-2.85-.29-5.35-.99-5.35-4.13,0-2.68,2.56-4.07,5.29-4.07,2.09,0,3.61.47,5,2.09l-1.92,1.57Z"/>
        <path class="cls-3" d="m426.59,21.92h-10.24v-13.43h9.94v2.73h-6.98v2.62h6.63v2.62h-6.63v2.73h7.27v2.73Z"/>
      </g>
      <path class="cls-3" d="m93.94.41h-6.69c-14.42,0-23.9,10.82-32.57,21.81-8.55,10.88-15.12,21.17-27.97,21.17h-.06c-4.48,0-8.14-1.74-11.28-4.89-5.82-5.82-5.82-17.8,0-23.61,3.14-3.14,6.8-4.89,11.28-4.89s8.67,1.74,11.81,4.89c1.98,1.98,5.12,1.98,7.1,0s1.98-5.12,0-7.1C40.55,2.79,33.86,0,26.71,0S12.87,2.79,7.81,7.85c-10.41,10.41-10.41,27.33,0,37.8,5.06,5.06,11.75,7.85,18.9,7.85h.06c17.68,0,26.05-13.26,35.24-25.01,7.85-9.94,15.12-18.03,24.72-18.03h2.21v21.11h-15.53c-2.62,0-4.77,2.15-4.77,4.77s2.15,4.77,4.77,4.77h15.53v7.27c0,2.73,2.21,5,5,5s5-2.21,5-5V5.41c0-2.73-2.21-5-5-5"/>
      <text class="cls-9" transform="translate(113.42 44.55)"><tspan class="cls-10" x="0" y="0">Y</tspan><tspan x="8.73" y="0">ou</tspan><tspan class="cls-5" x="27.6" y="0">r</tspan><tspan x="33.82" y="0"> </tspan><tspan class="cls-11" x="37.87" y="0">C</tspan><tspan x="48.8" y="0">a</tspan><tspan class="cls-1" x="58.71" y="0">r</tspan><tspan x="64.99" y="0">ee</tspan><tspan class="cls-6" x="83.3" y="0">r</tspan><tspan x="89.52" y="0" xml:space="preserve"> - </tspan><tspan class="cls-7" x="105.39" y="0">O</tspan><tspan x="118.1" y="0">u</tspan><tspan class="cls-6" x="127.53" y="0">r</tspan><tspan x="133.75" y="0"> </tspan><tspan class="cls-8" x="137.8" y="0">B</tspan><tspan class="cls-4" x="148.78" y="0">usiness</tspan></text>
    </g>
    <path class="cls-2" d="m242.64,78.58c3.73.02,7.49-.24,11.24-.48-4.18-.57-8.36-1.11-12.57-1.54.62.54,1.06,1.24,1.33,2.02Z"/>
  </g>
</svg>